# xmcd
#
# Track frame offsets: 
#        150
#        12536
#        28017
#        44525
#        61591
#        79061
#        90659
#        104881
#        116357
#        129534
#        142905
#        161487
#
# Disc length: 2273 seconds
#
# Revision: 2
# Processed by: cddbd v1.5.2PL0 Copyright (c) Steve Scherf et al.
# Submitted via: ExactAudioCopy v0.99pb5
#
DISCID=9a08df0c
DTITLE=Loretta Goggi - I Grandi Successi Originali CD1
DYEAR=2002
DGENRE=Pop
TTITLE0=Molla tutto
TTITLE1=Vieni via con me
TTITLE2=Fino all'ultimo
TTITLE3=Solo l'emozione
TTITLE4=Amanti ed angeli
TTITLE5=Scusa se insisto
TTITLE6=Io sto vivendo senza te
TTITLE7=Mani mani
TTITLE8=due ragazzi
TTITLE9=Cibù cibà
TTITLE10=Per favore
TTITLE11=Moscacieca twist
EXTD=
EXTT0=
EXTT1=
EXTT2=
EXTT3=
EXTT4=
EXTT5=
EXTT6=
EXTT7=
EXTT8=
EXTT9=
EXTT10=
EXTT11=
PLAYORDER=
